<svg width="32" height="49" fill="none" xmlns="http://www.w3.org/2000/svg"><path d="M31.032 49v-6.554H0V49h31.032zM18.451 1.748c-1.773-.94-3.632-.994-5.578-.164C10.777 4.402 6.691 14.855.617 32.944h6.226l2.4-5.964h11.965l2.14 6.357h6.486C27 22.697 23.207 12.168 18.45 1.748zm-3.243 6.75l3.989 12.288h-8.172l4.183-12.288z" fill="#F03024"/><path d="M.61 32.944C6.686 14.855 10.772 4.401 12.869 1.584c1.946-.83 3.805-.775 5.578.164 4.756 10.42 8.55 20.95 11.381 31.589h-6.485l-2.14-6.357H9.236l-2.4 5.963H.612zm10.41-12.158l4.183-12.288 3.989 12.288H11.02z" stroke="#F03024" stroke-width=".652" stroke-linecap="round" stroke-linejoin="round"/></svg>