<svg width="49" height="46" fill="none" xmlns="http://www.w3.org/2000/svg"><g clip-path="url(#clip0_2003_2957)"><path d="M.033 23.28c0 12.863 10.51 23.295 23.453 23.295.315 0 .63 0 .944-.016v-8.823h-.944c-8.027 0-14.548-6.456-14.548-14.44 0-7.968 6.504-14.441 14.548-14.441h.944V.016c-.314 0-.629-.016-.944-.016C10.543 0 .034 10.432.034 23.28z" fill="#FC5055"/><path d="M28.188.477v12.107h-4.684c-5.959 0-10.792 4.798-10.792 10.712s4.834 10.711 10.792 10.711h4.684v12.108c10.71-2.152 18.77-11.55 18.77-22.82S38.898 2.63 28.188.478z" fill="#003790"/></g><defs><clipPath id="clip0_2003_2957"><path fill="#fff" transform="translate(.033)" d="M0 0h48v46H0z"/></clipPath></defs></svg>