<svg width="204" height="38" fill="none" xmlns="http://www.w3.org/2000/svg"><g clip-path="url(#clip0_2003_2946)"><path d="M9.482 20.591c-2.917 0-5.212-.628-6.883-1.885C-.737 16.199-.334 10.743 1.055 7.29 3.02 2.351 7.734.073 12.891.073c3.687 0 9.028.894 9.028 5.605 0 6.133-6.598 6.903-11.363 6.903-1.23.005-2.46-.058-3.684-.19-.483 2.98 1.445 3.365 4.007 3.401a19.428 19.428 0 005.556-.908c.499-.134.81-.214 1.1.262l1.43 2.953c.216.363.047.654-.506.898-2.72 1.195-6.081 1.605-8.98 1.605m25.29-16.366c-1.869 0-3.298.8-3.64 2.692l-1.704 9.119a25.03 25.03 0 003.5.297c1.885 0 5.019-.512 5.019-2.99 0-1.997-2.892-1.867-4.281-1.867-.583 0-1.045-.058-.92-.748l.322-1.795c.143-.788.777-.839 1.466-.897 1.173-.094 3.13-.53 3.13-2.056.008-1.413-1.832-1.77-2.891-1.77v.015zM24.508 6.888C25.412 1.617 30.415-.01 35.18-.01c3.064 0 8.742.763 8.889 4.857.07 1.973-1.39 3.6-3.178 4.262v.185c2.063.581 3.775 1.817 3.775 4.109 0 5.718-7.459 7.175-11.883 7.175-3.13 0-6.66-.25-9.578-1.453-.564-.233-.733-.53-.645-1.12l1.947-11.116zM50.94 27.167c-.106.617-.502.636-1.059.636h-4.644c-.51 0-.935-.018-.828-.636L48.647 2.8a1.528 1.528 0 011.099-1.159C52.814.498 56.296.145 59.555.145c5.648 0 10.047 2.09 9.896 8.298-.183 7.531-4.885 12.072-12.33 12.072a25.47 25.47 0 01-4.926-.447l-1.254 7.099zM58.224 4.82a14.417 14.417 0 00-3.452.41L53.02 15.434c1.176.281 2.382.419 3.592.41 4.178 0 6.172-3.219 6.172-7.062 0-2.892-1.84-3.96-4.56-3.96zm25.423-.149c-2.818 0-4.61 1.95-5.296 4.523-.821 3.084-.667 6.8 3.409 6.8s5.619-4.133 5.619-7.585c0-2.412-1.283-3.738-3.732-3.738zm.598-4.596c5.41 0 9.896 2.271 9.896 8.185 0 8.073-5.498 12.41-13.125 12.33-5.19-.054-9.856-1.91-9.856-7.734a14.47 14.47 0 01.967-5.45C74.177 2.352 79.055.074 84.25.074l-.004.003zm22.667 4.483a18.608 18.608 0 00-2.995.186l-2.566 14.76c-.11.636-.465.672-1.059.672h-4.57c-.51 0-.987-.05-.877-.672l2.812-16.032C97.979 1.63 99.105.74 100.926.446a41.631 41.631 0 016.448-.363c3.973 0 9.53.494 10.593 5.177.272 1.49.255 3.02-.048 4.504l-1.657 9.755c-.11.639-.465.672-1.059.672h-4.608c-.513 0-.982-.051-.876-.672l1.752-10.085c.202-1.152.341-2.67-.458-3.633-.927-1.155-2.767-1.243-4.101-1.243zm50.747.113c-2.742 0-4.659 1.718-5.549 4.203-1.434 3.996-.774 7.237 4.123 7.157a13.902 13.902 0 003.178-.447c.546-3.542 1.122-7.11 1.888-10.611a20.535 20.535 0 00-2.856-.28 13.102 13.102 0 00-.784-.022zm.312-4.56c3.128.01 6.246.348 9.302 1.01.774.168 1.016.44.876 1.196-1.011 5.406-1.961 10.844-2.716 16.293a.834.834 0 01-.689.727 35.734 35.734 0 01-9.764 1.271c-5.499 0-10.176-1.7-10.176-7.629a15.83 15.83 0 01.858-5.362c1.906-5.333 6.917-7.505 12.309-7.505zM141.11 18.936l-.092.537v.03c-.117.617-.454.679-1.052.679h-4.556c-.674 0-.916-.244-.828-.748l2.496-14.463h-5.443c-.62 2.612-1.192 5.246-1.98 7.81-1.466 4.749-4.284 7.001-9.071 8.146-.477.112-1.1.134-1.335-.447l-1.063-2.689c-.271-.69.055-.962.69-1.195 2.8-1.028 4.057-2.205 5.087-5.25.839-2.477 1.309-5.652 2.049-8.577.436-1.718 1.466-2.205 3.178-2.205h12.462c1.697 0 2.566.498 2.258 2.27v.044l-2.8 16.058zm33.857.498c-.117.693-.444.748-1.1.748h-4.504c-.675 0-.961-.247-.876-.748l3.177-18.165c.085-.476.444-.727 1.06-.727h4.512c.619 0 .989 0 .876.727l-1.059 6.39h8.291l1.099-6.39c.081-.476.462-.727 1.1-.727h4.516c.612 0 .997 0 .876.727l-3.178 18.165c-.121.69-.385.748-1.06.748h-4.504c-.675 0-.961-.247-.876-.748l1.29-7.51h-8.335l-1.305 7.51zM12.521 4.596c-2.566 0-4.49 1.504-5.022 3.996 1.64.134 3.29.116 4.926-.055 1.342-.152 3.039-.497 3.039-2.147.004-1.544-1.756-1.794-2.943-1.794z" fill="#005B95"/><path d="M192.115 26.782c-45.729-8.647-89.149-3.633-135.506 10.557-1.3.4-1.466.897.213.541 42.757-9.126 89.182-12.156 135.128-10.172.927.04 2.269.07 2.265-.16-.003-.229-.421-.458-2.1-.774" fill="#F56920"/><path d="M199.756 1.007c.574 0 1.136.169 1.613.485a2.874 2.874 0 011.235 2.953 2.87 2.87 0 01-.795 1.474 2.91 2.91 0 01-1.486.787 2.93 2.93 0 01-1.678-.164 2.898 2.898 0 01-1.302-1.06 2.86 2.86 0 01-.49-1.598 2.865 2.865 0 01.852-2.033 2.92 2.92 0 012.051-.844zm0-.363c-.646 0-1.278.19-1.816.546a3.241 3.241 0 00-1.204 1.454 3.203 3.203 0 00-.186 1.872c.126.629.437 1.206.894 1.66a3.3 3.3 0 003.564.702 3.264 3.264 0 001.467-1.194 3.219 3.219 0 00.551-1.8 3.227 3.227 0 00-.959-2.289 3.284 3.284 0 00-2.311-.948V.644z" fill="#005B95"/><path d="M200.314 3.985c.122.034.23.105.308.204.068.099.118.208.15.323l.301 1.09a.074.074 0 010 .05s-.026.026-.055.026h-.33s-.029-.021-.037-.047l-.275-.984a.85.85 0 00-.117-.258.553.553 0 00-.366-.236 1.187 1.187 0 00-.242-.022h-.803v1.49a.065.065 0 010 .054.089.089 0 01-.055 0h-.26a.093.093 0 01-.055 0 .065.065 0 010-.055V2.35a.264.264 0 01.051-.177.233.233 0 01.187-.062h1.162c.15-.003.299.022.44.072a.963.963 0 01.333.208.896.896 0 01.213.312c.05.125.074.258.073.392a.972.972 0 01-.154.542.835.835 0 01-.443.337l-.026.011zm.194-.875a.75.75 0 00-.036-.24.558.558 0 00-.121-.207.624.624 0 00-.227-.13.853.853 0 00-.323-.055h-.946V3.77h.917a.735.735 0 00.553-.182.64.64 0 00.183-.48z" fill="#005B95"/></g><defs><clipPath id="clip0_2003_2946"><path fill="#fff" transform="translate(.033)" d="M0 0h203v38H0z"/></clipPath></defs></svg>