<svg width="49" height="30" fill="none" xmlns="http://www.w3.org/2000/svg"><g clip-path="url(#clip0_2003_2981)"><path d="M47.486 13.28c-.05 4.16-3.27 7.83-6.47 8.45-4 .78-6.35-2.95-5.22-7.12 2.17-8.06 11.79-8.61 11.69-1.33zm-13.29-8.16c0 4.17-3.27 7.83-6.47 8.45-4 .78-6.35-3-5.22-7.11 2.17-8.06 11.79-8.65 11.69-1.34zm-8.89 16.32c-.06 4.17-3.27 7.84-6.48 8.46-4 .78-6.34-3-5.22-7.12 2.18-8.06 11.8-8.65 11.7-1.34zm-13.27-8.16c-.06 4.17-3.27 7.84-6.48 8.46-4 .78-6.34-3-5.22-7.12 2.16-8.06 11.78-8.62 11.7-1.34z" fill="#FF4232"/></g><defs><clipPath id="clip0_2003_2981"><path fill="#fff" transform="translate(.033)" d="M0 0h48v30H0z"/></clipPath></defs></svg>