<svg width="46" height="48" fill="none" xmlns="http://www.w3.org/2000/svg"><g clip-path="url(#clip0_2003_2936)"><path d="M39.606 9.263c1.04 1.363 1.91 2.857 2.646 4.44L22.208 28.697l-8.419-5.364v-6.419l8.374 5.32L39.606 9.263z" fill="#21A038"/><path d="M5.24 22.894c0-.31 0-.57.045-.88L.21 21.75c0 .354-.045.749-.045 1.099A22.426 22.426 0 006.63 38.636l3.6-3.65a17.012 17.012 0 01-4.99-12.092z" fill="url(#paint0_linear_2003_2936)"/><path d="M22.162 5.743c.305 0 .565 0 .87.045l.26-5.145c-.35 0-.74-.044-1.086-.044-6.074 0-11.584 2.507-15.578 6.552l3.6 3.65c3.04-3.12 7.29-5.058 11.934-5.058z" fill="url(#paint1_linear_2003_2936)"/><path d="M22.165 40.044c-.305 0-.565 0-.87-.045l-.26 5.145c.35 0 .74.045 1.085.045 6.075 0 11.588-2.508 15.578-6.553l-3.6-3.65c-3.04 3.166-7.248 5.058-11.933 5.058z" fill="url(#paint2_linear_2003_2936)"/><path d="M31.71 8.734l4.294-3.21C32.23 2.445 27.414.553 22.165.553v5.144c3.56.045 6.855 1.144 9.544 3.036z" fill="url(#paint3_linear_2003_2936)"/><path d="M44.207 22.893c0-1.363-.13-2.682-.35-4l-4.729 3.56v.44c0 5.06-2.17 9.589-5.595 12.71l3.426 3.826c4.428-4.045 7.248-9.983 7.248-16.536z" fill="#21A038"/><path d="M22.163 40.044c-4.99 0-9.46-2.197-12.54-5.673L5.85 37.847c4.035 4.53 9.85 7.342 16.314 7.342v-5.145z" fill="url(#paint4_linear_2003_2936)"/><path d="M10.839 10.183l-3.43-3.826C2.94 10.447.166 16.341.166 22.893H5.24c0-5.014 2.17-9.584 5.599-12.71z" fill="url(#paint5_linear_2003_2936)"/></g><defs><linearGradient id="paint0_linear_2003_2936" x1="6.088" y1="38.011" x2=".851" y2="22.844" gradientUnits="userSpaceOnUse"><stop offset=".144" stop-color="#F2E913"/><stop offset=".304" stop-color="#E7E518"/><stop offset=".582" stop-color="#CADB26"/><stop offset=".891" stop-color="#A3CD39"/></linearGradient><linearGradient id="paint1_linear_2003_2936" x1="8.076" y1="6.57" x2="21.255" y2="1.539" gradientUnits="userSpaceOnUse"><stop offset=".059" stop-color="#0FA8E0"/><stop offset=".538" stop-color="#0099F9"/><stop offset=".923" stop-color="#0291EB"/></linearGradient><linearGradient id="paint2_linear_2003_2936" x1="20.739" y1="40.813" x2="36.435" y2="37.259" gradientUnits="userSpaceOnUse"><stop offset=".123" stop-color="#A3CD39"/><stop offset=".285" stop-color="#86C339"/><stop offset=".869" stop-color="#21A038"/></linearGradient><linearGradient id="paint3_linear_2003_2936" x1="21.122" y1="3.832" x2="34.179" y2="7.868" gradientUnits="userSpaceOnUse"><stop offset=".057" stop-color="#0291EB"/><stop offset=".79" stop-color="#0C8ACB"/></linearGradient><linearGradient id="paint4_linear_2003_2936" x1="7.14" y1="38.66" x2="21.169" y2="43.912" gradientUnits="userSpaceOnUse"><stop offset=".132" stop-color="#F2E913"/><stop offset=".298" stop-color="#EBE716"/><stop offset=".531" stop-color="#D9E01F"/><stop offset=".802" stop-color="#BBD62D"/><stop offset=".983" stop-color="#A3CD39"/></linearGradient><linearGradient id="paint5_linear_2003_2936" x1="4.055" y1="23.515" x2="9.715" y2="8.763" gradientUnits="userSpaceOnUse"><stop offset=".07" stop-color="#A3CD39"/><stop offset=".26" stop-color="#81C55F"/><stop offset=".922" stop-color="#0FA8E0"/></linearGradient><clipPath id="clip0_2003_2936"><path fill="#fff" transform="translate(.033)" d="M0 0h45v48H0z"/></clipPath></defs></svg>