<svg width="298" height="38" fill="none" xmlns="http://www.w3.org/2000/svg"><g clip-path="url(#clip0_2006_8554)"><path fill-rule="evenodd" clip-rule="evenodd" d="M118.283 4.522h17.409l1.49-3.669c.265-.677.257-.673.98-.673h3.479c.719 0 .743.04.98.717l1.261 3.625h18.473l1.491-3.669c.265-.677.257-.673.98-.673h3.479c.718 0 .743.04.98.717l1.261 3.625h17.232l1.459-3.593c.265-.677.257-.673.98-.673h3.478c.719 0 .743.04.981.717l1.232 3.549h16.213l1.457-3.593c.265-.677.257-.673.98-.673h3.479c.72 0 .744.04.98.717l1.234 3.549h17.682l1.49-3.669c.265-.677.257-.673.98-.673h3.479c.719 0 .743.04.98.717l1.262 3.625h18.674l1.49-3.669c.265-.677.257-.673.98-.673h3.478c.72 0 .744.04.981.717l1.261 3.625h18.887l1.49-3.669c.265-.677.257-.673.98-.673h3.479c.72 0 .744.04.98.717l1.261 3.625h18.952l1.458-3.593c.265-.677.257-.673.98-.673h3.479c.719 0 .743.04.98.717l1.234 3.549h19.778l1.502-3.705c.266-.677.258-.673.981-.673h3.478c.72 0 .744.04.98.717l1.274 3.665h19.389L376.033.82c.265-.677.257-.673.98-.673h3.478c.719 0 .743.04.981.717l1.273 3.665h19.63L403.866.86c.265-.677.257-.673.98-.673h3.478c.719 0 .743.04.98.717l1.262 3.625h4.354a39.18 39.18 0 0114.497 2.768l3.519-2.916c.554-.469.546-.473 1.184-.133l3.065 1.643c.631.34.635.384.523 1.093l-.699 4.334a39.917 39.917 0 018.965 8.363l4.648-.861c.715-.14.707-.149 1.096.46l1.872 2.924c.385.605.366.645-.081 1.21l-2.927 3.697A38.97 38.97 0 01454 38.539l4.35 1.926c.671.289.667.28.643 1.002-.04 1.233-.077 2.23-.117 3.468-.024.717-.064.737-.751.95l-3.892 1.201a38.926 38.926 0 01-4.347 14.92l2.64 3.676c.429.585.434.577.044 1.186l-1.864 2.928c-.386.604-.434.604-1.133.44l-4.527-1.065a39.906 39.906 0 01-10.6 8.824l.132 4.674c.029.725.037.72-.626 1.01-1.133.496-2.053.896-3.185 1.389-.659.288-.696.26-1.186-.264l-3.109-3.35a39.197 39.197 0 01-11.552 1.735h-6.861l-1.426 4.094c-.237.677-.261.717-.98.717h-3.479c-.723 0-.715.004-.98-.673l-1.679-4.138H378.84l-1.398 4.018c-.236.677-.26.717-.98.717h-3.479c-.723 0-.715.004-.98-.673l-1.647-4.062h-19.975l-1.398 4.018c-.237.677-.261.717-.98.717h-3.479c-.723 0-.715.004-.98-.673l-1.647-4.062h-16.81l-1.398 4.018c-.237.677-.261.717-.981.717h-3.478c-.723 0-.715.004-.98-.673l-1.647-4.062h-18.337l-1.398 4.018c-.236.677-.261.717-.98.717h-3.479c-.723 0-.715.004-.98-.673l-1.647-4.062h-16.557l-1.398 4.018c-.237.677-.261.717-.98.717h-3.478c-.723 0-.715.004-.98-.673l-1.647-4.062h-16.968l-1.398 4.018c-.236.677-.26.717-.98.717h-3.479c-.723 0-.715.004-.98-.673l-1.647-4.062h-18.658l-1.398 4.018c-.236.677-.26.717-.98.717h-3.479c-.723 0-.715.004-.98-.673l-1.647-4.062h-16.581l-1.398 4.018c-.237.677-.261.717-.98.717h-3.478c-.723 0-.715.004-.98-.673l-1.647-4.062h-16.273l-1.398 4.018c-.237.677-.261.717-.98.717h-3.478c-.723 0-.715.004-.98-.673l-1.647-4.062h-14.911l-1.398 4.018c-.237.677-.261.717-.98.717h-3.479c-.723 0-.715.004-.98-.673l-1.647-4.062H119.01l-2.093 4.03c-.329.637-.362.672-1.073.569l-3.442-.497c-.715-.104-.707-.1-.872-.809l-1-4.062a39.329 39.329 0 01-13.605-5.539l-3.989 2.15c-.63.341-.679.353-1.209-.127a686.27 686.27 0 01-2.567-2.343c-.534-.485-.53-.48-.269-1.158l1.442-3.86a39.652 39.652 0 01-7.945-11.424l-4.567-.132c-.72-.02-.763-.032-.98-.713-.374-1.178-.675-2.13-1.045-3.308-.217-.69-.217-.681.35-1.134l3.53-2.904a39.049 39.049 0 01-.337-14.306l-3.8-2.604c-.594-.404-.626-.44-.434-1.13.33-1.189.595-2.154.92-3.344.193-.697.19-.689.912-.765l4.756-.557a39.502 39.502 0 017.022-11.315l-1.824-3.849c-.305-.648-.318-.692.197-1.193.883-.865 1.598-1.562 2.486-2.427.518-.505.51-.501 1.173-.205l4.33 1.883a39.403 39.403 0 0114.734-6.665l1.31-4.346c.2-.697.192-.693.911-.76 1.234-.113 2.23-.209 3.463-.321.715-.068.743-.028 1.04.625l1.768 3.88-.02-.007zm.213 5.315h296.291c18.767 0 34.116 15.308 34.116 34.017 0 18.709-15.353 34.016-34.116 34.016H118.496c-18.767 0-34.116-15.308-34.116-34.016 0-18.709 15.353-34.017 34.116-34.017z" fill="#D2D2D2" fill-opacity=".4"/></g><defs><clipPath id="clip0_2006_8554"><path fill="#fff" d="M0 0h298v38H0z"/></clipPath></defs></svg>