<svg width="700" height="108" fill="none" xmlns="http://www.w3.org/2000/svg"><g clip-path="url(#clip0_2006_8720)" fill-rule="evenodd" clip-rule="evenodd" fill="#EDEDED"><path d="M-45.962 2.568h9.882l.846-2.084c.15-.384.146-.382.556-.382h1.975c.408 0 .422.023.556.408l.716 2.058h10.486L-20.1.484c.15-.384.146-.382.556-.382h1.974c.408 0 .422.023.557.408l.716 2.058h9.78l.829-2.04c.15-.385.146-.382.556-.382h1.975c.408 0 .421.022.556.407l.7 2.015h9.202l.827-2.04c.15-.385.146-.382.557-.382h1.974c.409 0 .422.022.557.407l.7 2.015h10.036L22.8.484c.15-.384.146-.382.556-.382h1.975c.408 0 .422.023.556.408l.716 2.058h10.6l.846-2.084c.15-.384.146-.382.556-.382h1.975c.408 0 .422.023.556.408l.716 2.058h10.72l.846-2.084c.15-.384.146-.382.557-.382h1.974c.408 0 .422.023.556.408l.716 2.058h10.758l.827-2.04c.15-.385.146-.382.556-.382h1.975c.408 0 .422.022.556.407l.7 2.015H83.82l.853-2.104c.15-.384.146-.382.556-.382h1.975c.408 0 .422.023.556.407l.723 2.082h11.005l.853-2.105c.151-.384.146-.382.557-.382h1.974c.408 0 .422.023.556.407l.723 2.082h11.143l.846-2.084c.15-.384.145-.382.556-.382h1.974c.408 0 .422.023.557.407l.716 2.059h2.471c2.9 0 5.677.557 8.229 1.572l1.997-1.656c.315-.266.31-.269.672-.075l1.74.932c.358.194.36.219.297.621l-.397 2.462a22.679 22.679 0 015.089 4.75l2.638-.49c.406-.079.401-.083.622.262l1.063 1.661c.218.344.207.367-.046.687l-1.662 2.1a22.092 22.092 0 011.94 6.49l2.469 1.095c.381.163.379.159.365.568-.022.701-.043 1.268-.066 1.97-.013.408-.036.42-.426.54l-2.209.682a22.116 22.116 0 01-2.468 8.474l1.499 2.089c.243.332.246.327.025.673l-1.058 1.663c-.219.343-.247.343-.643.25l-2.57-.605c-1.694 2-3.73 3.702-6.017 5.012l.075 2.655c.016.411.021.41-.355.573l-1.808.79c-.374.163-.395.147-.673-.15l-1.765-1.903a22.24 22.24 0 01-6.557.985h-3.894l-.81 2.326c-.134.384-.148.407-.556.407h-1.974c-.411 0-.406.002-.557-.382l-.953-2.35h-11.735l-.794 2.281c-.134.385-.148.408-.556.408H98.61c-.41 0-.405.002-.556-.383l-.935-2.307H85.78l-.793 2.282c-.135.385-.149.408-.557.408h-1.974c-.41 0-.406.002-.556-.383l-.935-2.307h-9.542l-.794 2.282c-.134.385-.148.408-.556.408h-1.974c-.41 0-.406.002-.557-.383l-.934-2.307H56.199l-.793 2.282c-.135.385-.149.408-.557.408h-1.974c-.41 0-.406.002-.556-.383l-.935-2.307h-9.399l-.793 2.282c-.135.385-.148.408-.556.408H38.66c-.41 0-.406.002-.556-.383l-.935-2.307h-9.63l-.794 2.282c-.135.385-.148.408-.556.408h-1.975c-.41 0-.406.002-.556-.383l-.935-2.307h-10.59l-.794 2.282c-.135.385-.148.408-.557.408H8.81c-.41 0-.406.002-.556-.383l-.935-2.307h-9.412l-.793 2.282c-.135.385-.149.408-.557.408h-1.974c-.41 0-.406.002-.557-.383l-.934-2.307h-9.237l-.793 2.282c-.135.385-.148.408-.557.408h-1.974c-.41 0-.406.002-.556-.383l-.935-2.307h-8.464l-.793 2.282c-.135.385-.148.408-.556.408h-1.975c-.41 0-.406.002-.556-.383l-.935-2.307H-45.55l-1.188 2.289c-.187.362-.205.382-.608.323l-1.955-.282c-.405-.06-.4-.057-.494-.46l-.568-2.306a22.315 22.315 0 01-7.722-3.147l-2.264 1.222c-.358.193-.386.2-.687-.073-.52-.473-.94-.855-1.457-1.33-.303-.276-.3-.274-.153-.658l.82-2.193a22.521 22.521 0 01-4.51-6.488l-2.593-.075c-.408-.012-.433-.018-.556-.405-.213-.669-.384-1.21-.593-1.88-.123-.39-.123-.386.198-.643l2.004-1.65a22.19 22.19 0 01-.191-8.125l-2.157-1.48c-.338-.229-.356-.25-.246-.64l.522-1.9c.11-.396.107-.392.517-.435l2.7-.316a22.44 22.44 0 013.985-6.427l-1.035-2.186c-.173-.369-.18-.394.112-.678l1.411-1.379c.294-.286.29-.284.666-.116l2.458 1.07a22.359 22.359 0 018.363-3.786l.743-2.468c.114-.396.11-.394.518-.432.7-.064 1.265-.119 1.965-.182.406-.04.422-.016.59.354l1.004 2.205-.012-.005zm.121 3.02h168.179c10.652 0 19.364 8.694 19.364 19.32 0 10.627-8.714 19.321-19.364 19.321H-45.841c-10.652 0-19.364-8.694-19.364-19.32 0-10.627 8.714-19.322 19.364-19.322zm239.483-3.02h9.882l.846-2.084c.15-.384.145-.382.556-.382h1.974c.408 0 .422.023.557.408l.715 2.058h10.486l.846-2.084c.151-.384.146-.382.556-.382h1.975c.408 0 .422.023.556.408l.716 2.058h9.781l.828-2.04c.151-.385.146-.382.557-.382h1.974c.408 0 .422.022.556.407l.7 2.015h9.202l.828-2.04c.15-.385.146-.382.556-.382h1.975c.408 0 .422.022.556.407l.7 2.015h10.037l.846-2.084c.15-.384.145-.382.556-.382h1.974c.409 0 .422.023.557.408l.716 2.058h10.6l.846-2.084c.15-.384.145-.382.556-.382h1.974c.408 0 .422.023.557.408l.716 2.058h10.72l.846-2.084c.15-.384.146-.382.556-.382h1.975c.408 0 .422.023.556.408l.716 2.058h10.757l.828-2.04c.15-.385.146-.382.556-.382h1.975c.408 0 .422.022.556.407l.7 2.015h11.227l.852-2.104c.151-.384.147-.382.557-.382h1.974c.408 0 .422.023.556.407l.723 2.082h11.006l.853-2.105c.15-.384.146-.382.556-.382h1.975c.408 0 .421.023.556.407l.723 2.082h11.142l.846-2.084c.15-.384.146-.382.556-.382h1.975c.408 0 .422.023.556.407l.716 2.059h2.471c2.901 0 5.678.557 8.229 1.572l1.998-1.656c.314-.266.309-.269.672-.075l1.74.932c.358.194.36.219.296.621l-.397 2.462a22.636 22.636 0 015.089 4.75l2.638-.49c.406-.079.402-.083.623.262l1.062 1.661c.219.344.208.367-.046.687l-1.661 2.1a22.152 22.152 0 011.94 6.49l2.469 1.095c.381.163.378.159.365.568-.023.701-.044 1.268-.066 1.97-.014.408-.037.42-.427.54l-2.209.682a22.132 22.132 0 01-2.467 8.474l1.498 2.089c.244.332.246.327.025.673l-1.058 1.663c-.219.343-.246.343-.643.25l-2.569-.605c-1.694 2-3.73 3.702-6.017 5.012l.075 2.655c.016.411.021.41-.356.573l-1.808.79c-.374.163-.394.147-.672-.15l-1.765-1.903a22.23 22.23 0 01-6.558.985h-3.894l-.809 2.326c-.135.384-.148.407-.556.407h-1.975c-.41 0-.406.002-.556-.382l-.953-2.35h-11.736l-.793 2.281c-.134.385-.148.408-.556.408h-1.975c-.41 0-.406.002-.556-.383l-.935-2.307h-11.338l-.794 2.282c-.135.385-.148.408-.556.408h-1.975c-.41 0-.406.002-.556-.383l-.935-2.307h-9.542l-.793 2.282c-.135.385-.148.408-.557.408h-1.974c-.41 0-.406.002-.556-.383l-.935-2.307h-10.408l-.794 2.282c-.134.385-.148.408-.556.408h-1.975c-.41 0-.406.002-.556-.383l-.935-2.307h-9.398l-.794 2.282c-.134.385-.148.408-.556.408h-1.974c-.411 0-.406.002-.556-.383l-.935-2.307h-9.631l-.794 2.282c-.134.385-.148.408-.556.408h-1.975c-.41 0-.405.002-.556-.383l-.935-2.307h-10.59l-.794 2.282c-.134.385-.148.408-.556.408h-1.975c-.41 0-.406.002-.556-.383l-.935-2.307h-9.412l-.793 2.282c-.135.385-.148.408-.556.408h-1.975c-.41 0-.406.002-.556-.383l-.935-2.307h-9.236l-.794 2.282c-.134.385-.148.408-.556.408h-1.975c-.41 0-.405.002-.556-.383l-.935-2.307h-8.463l-.794 2.282c-.134.385-.148.408-.556.408h-1.974c-.411 0-.406.002-.557-.383l-.935-2.307h-11.308l-1.188 2.289c-.187.362-.205.382-.609.323l-1.954-.282c-.406-.06-.401-.057-.495-.46l-.567-2.306a22.315 22.315 0 01-7.723-3.147l-2.264 1.222c-.358.193-.385.2-.686-.073-.52-.473-.94-.855-1.457-1.33-.303-.276-.301-.274-.153-.658l.819-2.193a22.504 22.504 0 01-4.51-6.488l-2.593-.075c-.408-.012-.433-.018-.556-.405a678.57 678.57 0 01-.593-1.88c-.123-.39-.123-.386.199-.643l2.004-1.65a22.15 22.15 0 01-.192-8.125l-2.157-1.48c-.337-.229-.355-.25-.246-.64.187-.676.337-1.225.522-1.9.11-.396.107-.392.518-.435l2.699-.316a22.443 22.443 0 013.986-6.427l-1.035-2.186c-.174-.369-.181-.394.111-.678l1.412-1.379c.294-.286.289-.284.665-.116l2.458 1.07a22.363 22.363 0 018.363-3.786l.744-2.468c.114-.396.109-.394.517-.432.7-.064 1.266-.119 1.966-.182.405-.04.421-.016.59.354l1.003 2.205-.011-.005zm.121 3.02h168.178c10.652 0 19.365 8.694 19.365 19.32 0 10.627-8.715 19.321-19.365 19.321H193.763c-10.652 0-19.364-8.694-19.364-19.32 0-10.627 8.714-19.322 19.364-19.322zm239.483-3.02h9.882l.846-2.084c.15-.384.146-.382.556-.382h1.975c.408 0 .421.023.556.408l.716 2.058h10.486l.846-2.084c.15-.384.145-.382.556-.382h1.974c.408 0 .422.023.557.408l.716 2.058h9.781l.828-2.04c.15-.385.146-.382.556-.382h1.975c.408 0 .421.022.556.407l.7 2.015h9.202l.827-2.04c.151-.385.146-.382.557-.382h1.974c.409 0 .422.022.557.407l.7 2.015h10.036l.846-2.084c.15-.384.146-.382.556-.382h1.975c.408 0 .422.023.556.408l.716 2.058h10.6l.846-2.084c.15-.384.146-.382.556-.382h1.975c.408 0 .421.023.556.408l.716 2.058h10.72l.846-2.084c.151-.384.146-.382.557-.382h1.974c.409 0 .422.023.557.408l.715 2.058h10.758l.827-2.04c.151-.385.146-.382.557-.382h1.974c.408 0 .422.022.556.407l.701 2.015h11.226l.853-2.104c.151-.384.146-.382.556-.382h1.975c.408 0 .422.023.556.407l.723 2.082h11.005l.853-2.105c.151-.384.146-.382.557-.382h1.974c.408 0 .422.023.556.407l.723 2.082h11.143l.846-2.084c.15-.384.145-.382.556-.382h1.974c.408 0 .422.023.557.407l.716 2.059h2.471c2.9 0 5.677.557 8.229 1.572l1.997-1.656c.315-.266.31-.269.672-.075l1.74.932c.358.194.36.219.297.621l-.397 2.462a22.679 22.679 0 015.089 4.75l2.638-.49c.406-.079.401-.083.622.262l1.063 1.661c.218.344.207.367-.046.687l-1.662 2.1a22.092 22.092 0 011.94 6.49l2.469 1.095c.381.163.379.159.365.568-.022.701-.043 1.268-.066 1.97-.013.408-.036.42-.426.54l-2.209.682a22.116 22.116 0 01-2.468 8.474l1.499 2.089c.243.332.246.327.025.673l-1.058 1.663c-.219.343-.246.343-.643.25l-2.57-.605c-1.694 2-3.73 3.702-6.017 5.012l.075 2.655c.016.411.021.41-.355.573l-1.808.79c-.374.163-.395.147-.673-.15l-1.765-1.903a22.24 22.24 0 01-6.557.985h-3.894l-.81 2.326c-.134.384-.148.407-.556.407h-1.974c-.411 0-.406.002-.557-.382l-.953-2.35h-11.735l-.794 2.281c-.134.385-.148.408-.556.408h-1.975c-.41 0-.405.002-.556-.383l-.935-2.307h-11.338l-.793 2.282c-.135.385-.149.408-.557.408h-1.974c-.411 0-.406.002-.557-.383l-.934-2.307h-9.542l-.794 2.282c-.134.385-.148.408-.556.408h-1.974c-.411 0-.406.002-.557-.383l-.935-2.307h-10.408l-.793 2.282c-.135.385-.149.408-.557.408h-1.974c-.411 0-.406.002-.557-.383l-.934-2.307h-9.399l-.793 2.282c-.134.385-.148.408-.556.408h-1.975c-.41 0-.406.002-.556-.383l-.935-2.307h-9.631l-.793 2.282c-.135.385-.148.408-.556.408h-1.975c-.41 0-.406.002-.556-.383l-.935-2.307h-10.591l-.793 2.282c-.135.385-.148.408-.557.408h-1.974c-.411 0-.406.002-.556-.383l-.935-2.307h-9.412l-.793 2.282c-.135.385-.149.408-.557.408h-1.974c-.411 0-.406.002-.557-.383l-.934-2.307h-9.237l-.793 2.282c-.135.385-.148.408-.557.408h-1.974c-.41 0-.406.002-.556-.383l-.935-2.307h-8.464l-.793 2.282c-.135.385-.148.408-.556.408h-1.975c-.41 0-.406.002-.556-.383l-.935-2.307h-11.309l-1.188 2.289c-.187.362-.205.382-.609.323l-1.954-.282c-.405-.06-.401-.057-.494-.46l-.568-2.306a22.31 22.31 0 01-7.722-3.147l-2.264 1.222c-.358.193-.386.2-.687-.073-.52-.473-.939-.855-1.457-1.33-.303-.276-.301-.274-.152-.658l.818-2.193a22.523 22.523 0 01-4.51-6.488l-2.592-.075c-.408-.012-.433-.018-.556-.405-.213-.669-.384-1.21-.593-1.88-.123-.39-.123-.386.198-.643l2.004-1.65a22.218 22.218 0 01-.191-8.125l-2.157-1.48c-.338-.229-.356-.25-.246-.64l.522-1.9c.109-.396.107-.392.517-.435l2.7-.316a22.44 22.44 0 013.985-6.427l-1.035-2.186c-.173-.369-.18-.394.112-.678l1.411-1.379c.294-.286.29-.284.666-.116l2.458 1.07a22.355 22.355 0 018.363-3.786l.743-2.468c.114-.396.11-.394.518-.432.7-.064 1.265-.119 1.965-.182.406-.04.422-.016.591.354l1.003 2.205-.012-.005zm.121 3.02h168.179c10.652 0 19.364 8.694 19.364 19.32 0 10.627-8.714 19.321-19.364 19.321H433.367c-10.652 0-19.364-8.694-19.364-19.32 0-10.627 8.714-19.322 19.364-19.322zm239.484-3.02h9.882l.845-2.084c.151-.384.146-.382.557-.382h1.974c.408 0 .422.023.557.408l.715 2.058h10.486l.846-2.084c.151-.384.146-.382.556-.382h1.975c.408 0 .422.023.556.408l.716 2.058h9.781l.828-2.04c.151-.385.146-.382.556-.382h1.975c.408 0 .422.022.556.407l.7 2.015h9.202l.828-2.04c.15-.385.146-.382.556-.382h1.975c.408 0 .422.022.556.407l.7 2.015h10.037l.846-2.084c.15-.384.145-.382.556-.382h1.974c.409 0 .422.023.557.408l.716 2.058h10.6l.846-2.084c.15-.384.145-.382.556-.382h1.974c.408 0 .422.023.557.408l.715 2.058h10.721l.846-2.084c.15-.384.146-.382.556-.382h1.975c.408 0 .422.023.556.408l.716 2.058h10.757l.828-2.04c.15-.385.146-.382.556-.382h1.975c.408 0 .422.022.556.407l.7 2.015h11.227l.852-2.104c.151-.384.147-.382.557-.382h1.974c.408 0 .422.023.556.407l.723 2.082H818.3l.853-2.105c.15-.384.146-.382.556-.382h1.975c.408 0 .421.023.556.407l.723 2.082h11.142l.846-2.084c.15-.384.146-.382.556-.382h1.975c.408 0 .422.023.556.407l.716 2.059h2.471c2.901 0 5.678.557 8.229 1.572l1.997-1.656c.315-.266.31-.269.673-.075l1.74.932c.358.194.36.219.296.621l-.397 2.462a22.636 22.636 0 015.089 4.75l2.638-.49c.406-.079.402-.083.623.262l1.062 1.661c.219.344.208.367-.046.687l-1.661 2.1a22.152 22.152 0 011.94 6.49l2.469 1.095c.381.163.378.159.365.568-.023.701-.044 1.268-.066 1.97-.014.408-.037.42-.427.54l-2.209.682a22.132 22.132 0 01-2.467 8.474l1.498 2.089c.244.332.246.327.025.673l-1.058 1.663c-.219.343-.246.343-.643.25l-2.569-.605c-1.694 2-3.73 3.702-6.017 5.012l.075 2.655c.016.411.021.41-.356.573l-1.808.79c-.374.163-.394.147-.672-.15l-1.765-1.903a22.23 22.23 0 01-6.558.985h-3.894l-.809 2.326c-.135.384-.148.407-.556.407h-1.975c-.41 0-.406.002-.556-.382l-.953-2.35h-11.736l-.793 2.281c-.134.385-.148.408-.556.408h-1.975c-.41 0-.406.002-.556-.383l-.935-2.307h-11.338l-.794 2.282c-.135.385-.148.408-.556.408h-1.975c-.41 0-.406.002-.556-.383l-.935-2.307h-9.542l-.793 2.282c-.135.385-.148.408-.557.408h-1.974c-.41 0-.406.002-.556-.383l-.935-2.307h-10.408l-.794 2.282c-.134.385-.148.408-.556.408h-1.975c-.41 0-.406.002-.556-.383l-.935-2.307h-9.398l-.794 2.282c-.134.385-.148.408-.556.408h-1.974c-.411 0-.406.002-.556-.383l-.935-2.307h-9.631l-.794 2.282c-.134.385-.148.408-.556.408h-1.975c-.41 0-.405.002-.556-.383l-.935-2.307h-10.59l-.794 2.282c-.134.385-.148.408-.556.408h-1.975c-.41 0-.406.002-.556-.383l-.935-2.307h-9.412l-.793 2.282c-.135.385-.148.408-.556.408h-1.975c-.41 0-.406.002-.556-.383l-.935-2.307h-9.236l-.794 2.282c-.134.385-.148.408-.556.408h-1.975c-.41 0-.405.002-.556-.383l-.935-2.307h-8.463l-.794 2.282c-.134.385-.148.408-.556.408h-1.974c-.411 0-.406.002-.557-.383l-.935-2.307h-11.308l-1.188 2.289c-.187.362-.205.382-.609.323l-1.954-.282c-.406-.06-.401-.057-.495-.46l-.567-2.306a22.315 22.315 0 01-7.723-3.147l-2.264 1.222c-.358.193-.385.2-.686-.073-.52-.473-.94-.855-1.457-1.33-.303-.276-.301-.274-.153-.658l.819-2.193a22.504 22.504 0 01-4.51-6.488l-2.593-.075c-.408-.012-.433-.018-.556-.405a678.57 678.57 0 01-.593-1.88c-.123-.39-.123-.386.199-.643l2.004-1.65a22.15 22.15 0 01-.192-8.125l-2.157-1.48c-.337-.229-.355-.25-.246-.64.187-.676.337-1.225.522-1.9.11-.396.107-.392.518-.435l2.699-.316a22.443 22.443 0 013.986-6.427l-1.035-2.186c-.174-.369-.181-.394.111-.678l1.412-1.379c.294-.286.289-.284.665-.116l2.458 1.07a22.363 22.363 0 018.363-3.786l.744-2.468c.114-.396.109-.394.517-.432.7-.064 1.266-.119 1.966-.182.405-.04.421-.016.59.354l1.003 2.205-.011-.005zm.121 3.02H841.15c10.652 0 19.365 8.694 19.365 19.32 0 10.627-8.715 19.321-19.365 19.321H672.972c-10.652 0-19.364-8.694-19.364-19.32 0-10.627 8.714-19.322 19.364-19.322zm-827.592 54.98h9.882l.846-2.084c.15-.384.146-.382.556-.382h1.975c.408 0 .421.023.556.408l.716 2.058h10.485l.846-2.084c.151-.384.146-.382.557-.382h1.974c.408 0 .422.023.557.408l.715 2.058h9.782l.828-2.04c.15-.385.145-.383.556-.383h1.974c.408 0 .422.023.557.408l.699 2.015h9.203l.827-2.04c.151-.385.146-.383.556-.383h1.975c.408 0 .422.023.556.408l.7 2.015h10.037l.846-2.084c.15-.384.146-.382.556-.382h1.975c.408 0 .422.023.556.408l.716 2.058h10.6l.846-2.084c.15-.384.146-.382.556-.382h1.974c.409 0 .422.023.557.408l.716 2.058h10.72l.846-2.084c.15-.384.146-.382.556-.382h1.975c.408 0 .422.023.556.408l.716 2.058h10.757l.828-2.04c.15-.385.146-.383.556-.383h1.975c.408 0 .422.023.556.408l.7 2.015h11.227l.853-2.104c.15-.384.146-.382.556-.382h1.974c.409 0 .422.023.557.407l.723 2.082h11.005l.853-2.105c.15-.384.146-.382.556-.382h1.975c.408 0 .422.023.556.407l.723 2.082H6.634l.846-2.084c.15-.384.146-.382.557-.382h1.974c.408 0 .422.023.557.407l.715 2.059h2.472c2.9 0 5.677.557 8.228 1.572l1.998-1.656c.314-.266.31-.269.672-.075l1.74.932c.358.194.36.219.296.621l-.396 2.462a22.665 22.665 0 015.089 4.75l2.638-.49c.405-.079.4-.083.622.263l1.063 1.66c.218.344.207.367-.046.687l-1.662 2.1a22.125 22.125 0 011.94 6.49l2.47 1.095c.38.163.378.159.364.568l-.066 1.97c-.014.408-.036.42-.426.54l-2.21.682a22.127 22.127 0 01-2.467 8.474l1.498 2.089c.244.332.247.327.026.673l-1.058 1.663c-.22.343-.247.343-.643.25l-2.57-.605a22.66 22.66 0 01-6.017 5.012l.075 2.655c.016.411.02.409-.355.573-.643.282-1.166.51-1.808.789-.374.164-.395.148-.673-.15l-1.765-1.902c-2.077.64-4.277.985-6.557.985H9.86l-.809 2.326c-.135.384-.148.407-.556.407H6.52c-.41 0-.406.002-.556-.382l-.953-2.351H-6.724l-.794 2.282c-.134.385-.148.408-.556.408h-1.975c-.41 0-.405.002-.556-.383l-.935-2.307h-11.338l-.794 2.282c-.134.385-.148.408-.556.408h-1.974c-.41 0-.406.002-.557-.383l-.934-2.307h-9.542l-.794 2.282c-.134.385-.148.408-.556.408h-1.975c-.41 0-.405.002-.556-.383l-.935-2.307h-10.408l-.794 2.282c-.134.385-.148.408-.556.408h-1.974c-.41 0-.406.002-.557-.383l-.935-2.307h-9.398l-.793 2.282c-.135.385-.148.408-.557.408h-1.974c-.41 0-.406.002-.556-.383l-.935-2.307h-9.63l-.794 2.282c-.135.385-.148.408-.557.408h-1.974c-.41 0-.406.002-.557-.383l-.934-2.307h-10.591l-.793 2.282c-.135.385-.148.408-.557.408h-1.974c-.411 0-.406.002-.557-.383l-.934-2.307h-9.412l-.794 2.282c-.134.385-.148.408-.556.408h-1.974c-.411 0-.406.002-.557-.383l-.935-2.307h-9.236l-.793 2.282c-.135.385-.149.408-.557.408h-1.974c-.411 0-.406.002-.557-.383l-.934-2.307h-8.464l-.793 2.282c-.135.385-.149.408-.557.408h-1.974c-.411 0-.406.002-.556-.383l-.935-2.307h-11.309l-1.188 2.289c-.187.362-.205.382-.609.323l-1.954-.282c-.406-.059-.401-.057-.494-.459l-.568-2.307a22.303 22.303 0 01-7.723-3.147l-2.264 1.222c-.358.193-.385.2-.686-.073-.52-.473-.939-.855-1.457-1.33-.303-.276-.301-.274-.153-.658l.819-2.193a22.523 22.523 0 01-4.51-6.488l-2.592-.075c-.409-.012-.434-.018-.557-.405a678.57 678.57 0 01-.593-1.88c-.123-.39-.123-.386.199-.643l2.004-1.65a22.218 22.218 0 01-.192-8.126l-2.156-1.478c-.338-.23-.356-.25-.247-.642.187-.675.338-1.224.522-1.9.11-.395.108-.39.518-.434l2.7-.316a22.418 22.418 0 013.985-6.427l-1.035-2.186c-.173-.369-.18-.394.112-.678l1.411-1.379c.294-.286.289-.284.666-.116l2.458 1.07a22.356 22.356 0 018.363-3.786l.743-2.468c.114-.396.109-.394.518-.432.699-.064 1.265-.119 1.965-.182.406-.04.422-.016.59.354l1.004 2.205-.012-.005zm.121 3.02H13.679c10.653 0 19.365 8.694 19.365 19.32 0 10.627-8.714 19.321-19.364 19.321H-154.5c-10.652 0-19.364-8.694-19.364-19.32 0-10.627 8.714-19.322 19.364-19.322zm239.483-3.02h9.881l.846-2.084c.15-.384.146-.382.557-.382h1.974c.408 0 .422.023.556.408l.716 2.058H110l.846-2.084c.15-.384.146-.382.556-.382h1.975c.408 0 .422.023.556.408l.716 2.058h9.781l.828-2.04c.15-.385.146-.383.556-.383h1.975c.408 0 .421.023.556.408l.7 2.015h9.202l.828-2.04c.15-.385.146-.383.556-.383h1.975c.408 0 .422.023.556.408l.7 2.015h10.037l.845-2.084c.151-.384.146-.382.557-.382h1.974c.409 0 .422.023.557.408l.716 2.058h10.599l.846-2.084c.151-.384.146-.382.557-.382h1.974c.408 0 .422.023.557.408l.715 2.058h10.721l.846-2.084c.15-.384.146-.382.556-.382h1.975c.408 0 .422.023.556.408l.716 2.058h10.757l.828-2.04c.15-.385.145-.383.556-.383h1.974c.408 0 .422.023.557.408l.7 2.015h11.226l.853-2.104c.151-.384.146-.382.557-.382h1.974c.408 0 .422.023.556.407l.723 2.082h11.006l.853-2.105c.15-.384.145-.382.556-.382h1.974c.408 0 .422.023.557.407l.723 2.082h11.142l.846-2.084c.15-.384.146-.382.556-.382h1.974c.409 0 .422.023.557.407l.716 2.059h2.471c2.901 0 5.677.557 8.229 1.572l1.997-1.656c.315-.266.31-.269.673-.075l1.74.932c.357.194.36.219.296.621l-.397 2.462a22.658 22.658 0 015.089 4.75l2.638-.49c.406-.079.401-.083.623.263l1.062 1.66c.219.344.208.367-.046.687l-1.662 2.1a22.123 22.123 0 011.941 6.49l2.469 1.095c.381.163.378.159.365.568-.023.701-.044 1.268-.066 1.97-.014.408-.037.42-.427.54l-2.209.682a22.132 22.132 0 01-2.467 8.474l1.498 2.089c.244.332.246.327.025.673l-1.058 1.663c-.219.343-.246.343-.643.25l-2.57-.605a22.66 22.66 0 01-6.017 5.012l.076 2.655c.016.411.02.409-.356.573-.643.282-1.165.51-1.808.789-.374.164-.395.148-.673-.15l-1.764-1.902a22.23 22.23 0 01-6.558.985h-3.894l-.809 2.326c-.135.384-.149.407-.557.407h-1.974c-.411 0-.406.002-.556-.382l-.953-2.351h-11.736l-.793 2.282c-.135.385-.148.408-.557.408h-1.974c-.411 0-.406.002-.556-.383l-.935-2.307h-11.339l-.793 2.282c-.135.385-.148.408-.556.408h-1.975c-.41 0-.406.002-.556-.383l-.935-2.307h-9.542l-.793 2.282c-.135.385-.149.408-.557.408h-1.974c-.411 0-.406.002-.556-.383l-.935-2.307h-10.409l-.793 2.282c-.134.385-.148.408-.556.408h-1.975c-.41 0-.406.002-.556-.383l-.935-2.307h-9.398l-.794 2.282c-.134.385-.148.408-.556.408h-1.974c-.411 0-.406.002-.557-.383l-.934-2.307h-9.631l-.794 2.282c-.134.385-.148.408-.556.408h-1.975c-.41 0-.406.002-.556-.383l-.935-2.307h-10.591l-.793 2.282c-.134.385-.148.408-.556.408h-1.975c-.41 0-.406.002-.556-.383l-.935-2.307h-9.412l-.793 2.282c-.135.385-.148.408-.557.408h-1.974c-.41 0-.406.002-.556-.383l-.935-2.307H114.8l-.794 2.282c-.135.385-.148.408-.556.408h-1.975c-.41 0-.406.002-.556-.383l-.935-2.307h-8.463l-.794 2.282c-.134.385-.148.408-.556.408h-1.975c-.41 0-.406.002-.556-.383l-.935-2.307H85.396l-1.188 2.289c-.186.362-.205.382-.608.323l-1.954-.282c-.406-.059-.401-.057-.495-.459l-.568-2.307a22.303 22.303 0 01-7.722-3.147l-2.264 1.222c-.358.193-.385.2-.686-.073-.52-.473-.94-.855-1.457-1.33-.304-.276-.301-.274-.153-.658l.818-2.193a22.521 22.521 0 01-4.51-6.488l-2.592-.075c-.408-.012-.433-.018-.556-.405-.212-.669-.383-1.21-.593-1.88-.123-.39-.123-.386.198-.643l2.005-1.65a22.19 22.19 0 01-.192-8.126l-2.157-1.478c-.337-.23-.356-.25-.246-.642.187-.675.337-1.224.522-1.9.11-.395.107-.39.518-.434l2.7-.316A22.441 22.441 0 0168.2 68.17l-1.036-2.186c-.173-.369-.18-.394.112-.678l1.412-1.379c.294-.286.289-.284.665-.116l2.458 1.07a22.36 22.36 0 018.363-3.786l.743-2.468c.114-.396.11-.394.518-.432.7-.064 1.265-.119 1.965-.182.406-.04.422-.016.59.354l1.004 2.205-.011-.005zm.12 3.02h168.179c10.652 0 19.364 8.694 19.364 19.32 0 10.627-8.714 19.321-19.364 19.321H85.105c-10.653 0-19.365-8.694-19.365-19.32 0-10.627 8.715-19.322 19.365-19.322zm239.484-3.02h9.882l.846-2.084c.15-.384.146-.382.556-.382h1.975c.408 0 .421.023.556.408l.716 2.058h10.485l.846-2.084c.151-.384.146-.382.557-.382h1.974c.408 0 .422.023.557.408l.715 2.058h9.782l.828-2.04c.15-.385.145-.383.556-.383h1.974c.408 0 .422.023.557.408l.699 2.015h9.203l.827-2.04c.151-.385.146-.383.556-.383h1.975c.408 0 .422.023.556.408l.7 2.015h10.037l.846-2.084c.15-.384.146-.382.556-.382h1.975c.408 0 .422.023.556.408l.716 2.058h10.6l.846-2.084c.15-.384.146-.382.556-.382h1.974c.409 0 .422.023.557.408l.716 2.058h10.72l.846-2.084c.151-.384.146-.382.556-.382h1.975c.408 0 .422.023.556.408l.716 2.058h10.757l.828-2.04c.151-.385.146-.383.556-.383h1.975c.408 0 .422.023.556.408l.7 2.015h11.227l.853-2.104c.15-.384.146-.382.556-.382h1.974c.409 0 .422.023.557.407l.723 2.082h11.005l.853-2.105c.151-.384.146-.382.556-.382h1.975c.408 0 .422.023.556.407l.723 2.082h11.142l.846-2.084c.151-.384.146-.382.557-.382h1.974c.408 0 .422.023.557.407l.715 2.059h2.472c2.9 0 5.677.557 8.228 1.572l1.998-1.656c.314-.266.31-.269.672-.075l1.74.932c.358.194.36.219.296.621l-.396 2.462a22.68 22.68 0 015.089 4.75l2.638-.49c.406-.079.401-.083.622.263l1.063 1.66c.218.344.207.367-.046.687l-1.662 2.1a22.122 22.122 0 011.94 6.49l2.469 1.095c.381.163.379.159.365.568l-.066 1.97c-.014.408-.036.42-.426.54l-2.21.682a22.115 22.115 0 01-2.467 8.474l1.498 2.089c.244.332.247.327.026.673l-1.058 1.663c-.219.343-.247.343-.643.25l-2.57-.605a22.66 22.66 0 01-6.017 5.012l.075 2.655c.016.411.021.409-.355.573-.643.282-1.166.51-1.808.789-.374.164-.395.148-.673-.15l-1.765-1.902c-2.077.64-4.277.985-6.557.985h-3.895l-.809 2.326c-.134.384-.148.407-.556.407h-1.975c-.41 0-.406.002-.556-.382l-.953-2.351h-11.735l-.794 2.282c-.134.385-.148.408-.556.408h-1.975c-.41 0-.406.002-.556-.383l-.935-2.307H456.33l-.794 2.282c-.134.385-.148.408-.556.408h-1.974c-.411 0-.406.002-.557-.383l-.935-2.307h-9.541l-.794 2.282c-.134.385-.148.408-.556.408h-1.975c-.41 0-.405.002-.556-.383l-.935-2.307h-10.408l-.794 2.282c-.134.385-.148.408-.556.408h-1.974c-.411 0-.406.002-.557-.383l-.935-2.307h-9.398l-.793 2.282c-.135.385-.148.408-.557.408h-1.974c-.41 0-.406.002-.556-.383l-.935-2.307h-9.631l-.793 2.282c-.135.385-.148.408-.557.408h-1.974c-.411 0-.406.002-.557-.383l-.934-2.307h-10.591l-.793 2.282c-.135.385-.148.408-.557.408h-1.974c-.411 0-.406.002-.557-.383l-.934-2.307h-9.412l-.794 2.282c-.134.385-.148.408-.556.408h-1.974c-.411 0-.406.002-.557-.383l-.935-2.307h-9.236l-.793 2.282c-.135.385-.149.408-.557.408h-1.974c-.411 0-.406.002-.556-.383l-.935-2.307h-8.464l-.793 2.282c-.135.385-.149.408-.557.408h-1.974c-.411 0-.406.002-.556-.383l-.935-2.307h-11.309l-1.188 2.289c-.187.362-.205.382-.609.323l-1.954-.282c-.406-.059-.401-.057-.494-.459l-.568-2.307a22.303 22.303 0 01-7.723-3.147l-2.264 1.222c-.358.193-.385.2-.686-.073-.52-.473-.939-.855-1.457-1.33-.303-.276-.301-.274-.153-.658l.819-2.193a22.523 22.523 0 01-4.51-6.488l-2.592-.075c-.409-.012-.434-.018-.557-.405a678.57 678.57 0 01-.593-1.88c-.123-.39-.123-.386.199-.643l2.004-1.65a22.218 22.218 0 01-.192-8.126l-2.156-1.478c-.338-.23-.356-.25-.247-.642.187-.675.338-1.224.522-1.9.11-.395.108-.39.518-.434l2.7-.316a22.418 22.418 0 013.985-6.427l-1.035-2.186c-.173-.369-.18-.394.112-.678l1.411-1.379c.294-.286.289-.284.666-.116l2.458 1.07a22.356 22.356 0 018.363-3.786l.743-2.468c.114-.396.109-.394.518-.432.699-.064 1.265-.119 1.965-.182.406-.04.422-.016.59.354l1.004 2.205-.012-.005zm.121 3.02h168.179c10.652 0 19.364 8.694 19.364 19.32 0 10.627-8.714 19.321-19.364 19.321H324.709c-10.652 0-19.364-8.694-19.364-19.32 0-10.627 8.714-19.322 19.364-19.322zm239.484-3.02h9.881l.846-2.084c.151-.384.146-.382.557-.382h1.974c.408 0 .422.023.556.408l.716 2.058h10.486l.846-2.084c.15-.384.146-.382.556-.382h1.975c.408 0 .422.023.556.408l.716 2.058h9.781l.828-2.04c.15-.385.146-.383.556-.383h1.975c.408 0 .421.023.556.408l.7 2.015h9.202l.828-2.04c.15-.385.146-.383.556-.383h1.975c.408 0 .422.023.556.408l.7 2.015h10.037l.845-2.084c.151-.384.146-.382.557-.382h1.974c.408 0 .422.023.556.408l.717 2.058h10.599l.846-2.084c.151-.384.146-.382.557-.382h1.974c.408 0 .422.023.556.408l.716 2.058h10.721l.846-2.084c.15-.384.146-.382.556-.382h1.975c.408 0 .421.023.556.408l.716 2.058h10.757l.828-2.04c.15-.385.145-.383.556-.383h1.974c.408 0 .422.023.557.408l.7 2.015h11.226l.853-2.104c.151-.384.146-.382.557-.382h1.974c.408 0 .422.023.556.407l.723 2.082h11.006l.853-2.105c.15-.384.145-.382.556-.382h1.974c.408 0 .422.023.557.407l.723 2.082h11.142l.846-2.084c.15-.384.146-.382.556-.382h1.974c.409 0 .422.023.557.407l.716 2.059h2.471c2.901 0 5.677.557 8.229 1.572l1.997-1.656c.315-.266.31-.269.673-.075l1.74.932c.357.194.36.219.296.621l-.397 2.462a22.658 22.658 0 015.089 4.75l2.638-.49c.406-.079.401-.083.623.263l1.062 1.66c.219.344.208.367-.046.687l-1.662 2.1a22.123 22.123 0 011.941 6.49l2.469 1.095c.381.163.378.159.365.568l-.067 1.97c-.013.408-.036.42-.426.54l-2.209.682a22.132 22.132 0 01-2.467 8.474l1.498 2.089c.244.332.246.327.025.673l-1.058 1.663c-.219.343-.246.343-.643.25l-2.57-.605a22.66 22.66 0 01-6.017 5.012l.076 2.655c.016.411.02.409-.356.573-.643.282-1.165.51-1.808.789-.374.164-.395.148-.673-.15l-1.764-1.902a22.23 22.23 0 01-6.558.985h-3.894l-.809 2.326c-.135.384-.149.407-.557.407h-1.974c-.411 0-.406.002-.556-.382l-.953-2.351h-11.736l-.793 2.282c-.135.385-.148.408-.557.408h-1.974c-.411 0-.406.002-.556-.383l-.935-2.307h-11.339l-.793 2.282c-.135.385-.148.408-.556.408h-1.975c-.41 0-.406.002-.556-.383l-.935-2.307h-9.542l-.793 2.282c-.135.385-.149.408-.557.408h-1.974c-.411 0-.406.002-.556-.383l-.935-2.307h-10.409l-.793 2.282c-.134.385-.148.408-.556.408h-1.975c-.41 0-.406.002-.556-.383l-.935-2.307h-9.398l-.794 2.282c-.134.385-.148.408-.556.408h-1.974c-.411 0-.406.002-.557-.383l-.934-2.307h-9.631l-.794 2.282c-.134.385-.148.408-.556.408h-1.975c-.41 0-.406.002-.556-.383l-.935-2.307h-10.591l-.793 2.282c-.134.385-.148.408-.556.408h-1.975c-.41 0-.406.002-.556-.383l-.935-2.307h-9.412l-.793 2.282c-.135.385-.148.408-.557.408h-1.974c-.41 0-.406.002-.556-.383l-.935-2.307h-9.236l-.794 2.282c-.135.385-.148.408-.556.408h-1.975c-.41 0-.406.002-.556-.383l-.935-2.307h-8.463l-.794 2.282c-.134.385-.148.408-.556.408h-1.975c-.41 0-.405.002-.556-.383l-.935-2.307h-11.309l-1.187 2.289c-.187.362-.206.382-.609.323l-1.954-.282c-.406-.059-.402-.057-.495-.459l-.568-2.307a22.305 22.305 0 01-7.722-3.147l-2.264 1.222c-.358.193-.386.2-.686-.073-.52-.473-.94-.855-1.457-1.33-.304-.276-.301-.274-.153-.658l.818-2.193a22.543 22.543 0 01-4.51-6.488l-2.592-.075c-.408-.012-.433-.018-.556-.405a678.57 678.57 0 01-.593-1.88c-.123-.39-.123-.386.198-.643l2.004-1.65a22.218 22.218 0 01-.191-8.126l-2.157-1.478c-.337-.23-.356-.25-.246-.642.187-.675.337-1.224.522-1.9.109-.395.107-.39.518-.434l2.699-.316a22.443 22.443 0 013.986-6.427l-1.036-2.186c-.173-.369-.18-.394.112-.678l1.411-1.379c.295-.286.29-.284.666-.116l2.458 1.07a22.364 22.364 0 018.363-3.786l.743-2.468c.114-.396.11-.394.518-.432.7-.064 1.265-.119 1.965-.182.406-.04.422-.016.591.354l1.003 2.205-.011-.005zm.121 3.02h168.178c10.652 0 19.364 8.694 19.364 19.32 0 10.627-8.714 19.321-19.364 19.321H564.314c-10.653 0-19.365-8.694-19.365-19.32 0-10.627 8.715-19.322 19.365-19.322z"/></g><defs><clipPath id="clip0_2006_8720"><path fill="#fff" d="M0 0h700v108H0z"/></clipPath></defs></svg>